<?xml version="1.0" encoding="utf-8"?>
<!-- Generator: Adobe Illustrator 16.0.3, SVG Export Plug-In . SVG Version: 6.00 Build 0)  -->
<!DOCTYPE svg PUBLIC "-//W3C//DTD SVG 1.1//EN" "http://www.w3.org/Graphics/SVG/1.1/DTD/svg11.dtd">
<svg version="1.1" id="Capa_1" xmlns="http://www.w3.org/2000/svg" xmlns:xlink="http://www.w3.org/1999/xlink" x="0px" y="0px"
	 width="595.28px" height="841.89px" viewBox="0 0 595.28 841.89" enable-background="new 0 0 595.28 841.89" xml:space="preserve">
<g>
	<g>
		<path fill-rule="evenodd" clip-rule="evenodd" fill="#FEFEFE" d="M478.241,408.127c0,59.596-0.003,119.19,0.022,178.786
			c0.001,0.967-0.14,1.248-1.204,1.248c-119.23-0.032-238.461-0.032-357.691-0.003c-0.999,0.001-1.153-0.231-1.153-1.18
			c0.026-119.23,0.026-238.46,0.001-357.691c0-0.935,0.134-1.187,1.146-1.187c119.23,0.031,238.461,0.031,357.691,0
			c1.048,0,1.213,0.258,1.213,1.241C478.238,288.937,478.241,348.532,478.241,408.127z M378.029,462.822
			c0.179-1.051,0.245-2.135,0.293-3.176c0.151-3.367,0.394-6.729,0.557-10.093c0.155-3.207,0.37-6.408,0.538-9.612
			c0.18-3.438,0.43-6.871,0.599-10.307c0.16-3.246,0.374-6.489,0.531-9.733c0.167-3.444,0.359-6.886,0.539-10.329
			c0.17-3.238,0.433-6.47,0.594-9.704c0.174-3.483,0.38-6.965,0.549-10.447c0.149-3.088,0.358-6.171,0.521-9.256
			c0.183-3.478,0.428-6.952,0.604-10.428c0.162-3.205,0.385-6.406,0.536-9.609c0.162-3.447,0.326-6.891,0.542-10.336
			c0.202-3.235,0.366-6.472,0.573-9.707c0.222-3.477,0.395-6.961,0.563-10.443c0.149-3.086,0.348-6.168,0.52-9.252
			c0.194-3.475,0.373-6.949,0.592-10.423c0.202-3.199,0.398-6.403,0.55-9.604c0.168-3.524,0.381-7.046,0.539-10.569
			c0.143-3.162,0.375-6.314,0.569-9.47c0.221-3.596,0.415-7.198,0.576-10.799c0.134-2.969,0.375-5.929,0.517-8.893
			c0.174-3.639,0.422-7.274,0.576-10.911c0.113-2.657,0.553-5.305,0.338-7.975c-0.006-0.08-0.006-0.161,0.004-0.24
			c0.375-3.232,0.518-6.477,0.54-9.729c0.004-0.533-0.213-0.629-0.699-0.694c-2.517-0.336-5.059-0.302-7.584-0.477
			c-3.198-0.223-6.405-0.388-9.61-0.549c-3.399-0.171-6.796-0.396-10.192-0.563c-2.695-0.133-5.388-0.548-8.099-0.351
			c-0.159,0.012-0.321,0.004-0.479-0.014c-3.192-0.364-6.396-0.532-9.609-0.524c-0.471,0.001-0.662,0.105-0.745,0.646
			c-0.393,2.553-0.256,5.134-0.451,7.698c-0.239,3.155-0.387,6.324-0.555,9.486c-0.184,3.438-0.4,6.871-0.607,10.306
			c-0.189,3.161-0.365,6.324-0.528,9.486c-0.17,3.283-0.36,6.563-0.533,9.845c-0.176,3.318-0.39,6.63-0.594,9.945
			c-0.201,3.281-0.398,6.566-0.549,9.851c-0.149,3.288-0.346,6.57-0.529,9.854c-0.186,3.317-0.385,6.632-0.591,9.948
			c-0.195,3.158-0.387,6.32-0.547,9.481c-0.174,3.443-0.389,6.886-0.519,10.329c-0.103,2.699-0.304,5.398-0.422,8.095
			c-0.062,1.425-0.04,2.905-0.311,4.336c-1.735-4.789-3.516-9.563-5.192-14.373c-1.434-4.114-2.9-8.216-4.387-12.313
			c-2.544-7.01-5.009-14.049-7.504-21.078c-1.947-5.488-3.898-10.975-5.83-16.468c-2.795-7.946-5.577-15.897-8.355-23.85
			c-0.275-0.789-0.661-1.217-1.623-1.215c-19.032,0.03-38.064,0.029-57.097,0.003c-0.978-0.001-1.199,0.345-0.978,1.192
			c-0.295,3.407,0.044,6.819-0.303,10.247c-0.436,4.304,0.078,8.658-0.309,13.002c-0.377,4.24,0.08,8.514-0.268,12.785
			c-0.362,4.443,0.088,8.919-0.273,13.388c-0.344,4.245-0.006,8.515-0.237,12.785c-0.294,5.447-0.013,10.922-0.332,16.38
			c-0.188,3.216,0.042,6.433-0.229,9.666c-0.376,4.473,0.078,8.982-0.33,13.484c-0.373,4.119,0.074,8.271-0.267,12.422
			c-0.368,4.483,0.081,9.001-0.277,13.51c-0.335,4.207-0.009,8.438-0.236,12.67c-0.29,5.367-0.018,10.761-0.328,16.141
			c-0.19,3.296,0.14,6.596-0.241,9.906c-0.339,2.949,0.087,5.942-0.321,8.927c-0.338,2.47,0.04,4.989-0.27,7.504
			c-0.324,2.633,0.04,5.313-0.277,7.983c-0.299,2.52,0.048,5.076-0.257,7.629c-0.311,2.598,0.053,5.235-0.269,7.866
			c-0.312,2.556,0.063,5.152-0.277,7.743c-0.334,2.548-0.02,5.137-0.284,7.728c-0.321,3.151-0.039,6.357-0.341,9.536
			c-0.194,2.051-0.021,4.113-0.219,6.187c-0.275,2.881-0.153,5.801-0.278,8.706c-0.173,4.044-0.266,8.087-0.55,12.13
			c-0.259,3.7-0.722,7.355-1.436,10.985c-0.796,4.049-1.943,7.97-3.935,11.626c-2.932,5.381-7.645,7.718-13.533,7.911
			c-2.068,0.068-4.157-0.366-6.156-0.985c-5.13-1.589-7.969-5.393-9.729-10.207c-2.126-5.818-2.805-11.929-3.001-18.022
			c-0.248-7.708-0.216-15.433,0.449-23.149c0.35-4.06,0.458-8.159,0.56-12.24c0.082-3.264,0.515-6.516,0.319-9.786
			c-0.007-0.119-0.013-0.243,0.01-0.359c0.554-2.78-0.01-5.63,0.52-8.412c0.101-0.526-0.094-0.793-0.706-0.791
			c-1.465,0.005-2.924-0.089-4.39-0.209c-2.965-0.243-5.953,0.034-8.936-0.328c-2.559-0.31-5.152,0-7.748-0.252
			c-3.157-0.308-6.361-0.017-9.543-0.319c-2.331-0.222-4.694,0.236-7.025-0.274c-0.559-0.122-1.123-0.055-1.296,0.671
			c-0.207,0.874-0.454,1.74-0.621,2.621c-0.64,3.378-1.483,6.714-2.023,10.114c-0.57,3.593-1.314,7.158-1.872,10.752
			c-0.571,3.685-0.89,7.405-1.362,11.104c-0.448,3.521-0.795,7.079-0.817,10.624c-0.043,7.229-0.359,14.471,0.737,21.678
			c0.453,2.98,0.834,5.975,1.444,8.924c0.807,3.901,1.934,7.712,3.459,11.41c1.238,3.002,2.669,5.885,4.353,8.663
			c1.73,2.854,3.694,5.524,5.949,7.967c1.779,1.927,3.763,3.641,5.8,5.312c3.715,3.048,7.838,5.412,12.173,7.356
			c6.61,2.964,13.684,4.304,20.833,5.119c3.58,0.408,7.209,0.369,10.813,0.594c1.053,0.065,2.036-0.299,3.068-0.285
			c3.409,0.043,6.774-0.324,10.149-0.815c3.154-0.459,6.291-0.957,9.378-1.729c4.875-1.219,9.51-3.083,13.79-5.71
			c5.021-3.081,9.431-6.895,13.191-11.461c2.631-3.194,4.84-6.654,6.767-10.294c2.436-4.601,4.428-9.391,5.91-14.392
			c0.755-2.549,1.378-5.126,1.946-7.721c0.595-2.721,0.951-5.481,1.438-8.217c0.492-2.761,0.647-5.546,0.997-8.313
			c0.317-2.507,0.299-5.048,0.536-7.571c0.252-2.681-0.03-5.385,0.312-8.089c0.329-2.593-0.024-5.228,0.266-7.861
			c0.322-2.915-0.031-5.877,0.29-8.823c0.284-2.604-0.032-5.236,0.245-7.87c0.306-2.918-0.037-5.878,0.285-8.824
			c0.284-2.603-0.042-5.231,0.254-7.865c0.328-2.91-0.048-5.864,0.328-8.807c0.331-2.593-0.028-5.228,0.268-7.861
			c0.328-2.914-0.034-5.876,0.292-8.822c0.288-2.603-0.036-5.233,0.246-7.868c0.313-2.917-0.036-5.878,0.284-8.824
			c0.282-2.603-0.044-5.231,0.251-7.864c0.326-2.91-0.005-5.861,0.316-8.807c0.31-2.833-0.157-5.727,0.373-8.568
			c0.994,2.744,1.972,5.495,2.984,8.232c2.469,6.677,4.769,13.414,7.208,20.103c2.367,6.492,4.635,13.022,6.974,19.526
			c1.858,5.168,3.703,10.342,5.542,15.518c1.937,5.448,3.859,10.902,5.817,16.344c2.195,6.104,4.31,12.236,6.43,18.366
			c0.291,0.841,0.722,1.239,1.648,1.153c2.347-0.217,4.685,0.196,7.004,0.384c3.309,0.266,6.629,0.418,9.938,0.669
			c2.325,0.177,4.678,0.316,7.021,0.404c1.578,0.06,3.188,0.013,4.748,0.237c3.295,0.476,6.618,0.523,9.924,0.772
			c2.327,0.176,4.676,0.326,7.021,0.396c1.536,0.046,3.092,0.095,4.631,0.223c2.959,0.246,5.904,0.693,8.887,0.461
			c1.407,0.218,2.838,0.182,4.252,0.302c2.951,0.251,5.919,0.421,8.882,0.583c2.767,0.151,5.527,0.367,8.291,0.532
			c2.963,0.177,5.922,0.367,8.882,0.58c2.918,0.21,5.843,0.439,8.764,0.546c2.341,0.085,4.669,0.491,7.021,0.329
			c0.371-0.025,0.751,0.058,1.154,0.094c0.187-1.491,0.141-3.003,0.233-4.496c0.223-3.591,0.445-7.186,0.604-10.779
			c0.119-2.695,0.544-5.385,0.342-8.094c-0.008-0.118-0.003-0.241,0.021-0.357c0.471-2.342,0.141-4.741,0.508-7.092
			c0.074-0.474-0.132-0.614-0.639-0.744c-1.948-0.496-3.943-0.247-5.909-0.434c-2.869-0.271-5.762-0.414-8.645-0.599
			c-2.846-0.182-5.688-0.385-8.533-0.575c-2.883-0.193-5.77-0.37-8.654-0.534c-2.887-0.163-5.769-0.373-8.653-0.539
			c-2.842-0.163-5.675-0.385-8.512-0.607c-3.556-0.278-7.124-0.385-10.688-0.566C378.119,463.143,378.074,462.983,378.029,462.822z"
			/>
		<path fill-rule="evenodd" clip-rule="evenodd" fill="#CC6500" d="M293.666,392.966c-0.53,2.842-0.063,5.735-0.373,8.568
			c-0.322,2.945,0.01,5.897-0.316,8.807c-0.295,2.633,0.031,5.262-0.251,7.864c-0.32,2.946,0.028,5.907-0.284,8.824
			c-0.282,2.635,0.042,5.266-0.246,7.868c-0.326,2.946,0.036,5.908-0.292,8.822c-0.296,2.634,0.063,5.269-0.268,7.861
			c-0.375,2.942,0,5.896-0.328,8.807c-0.296,2.634,0.03,5.263-0.254,7.865c-0.322,2.946,0.021,5.906-0.285,8.824
			c-0.276,2.634,0.04,5.267-0.245,7.87c-0.321,2.946,0.032,5.908-0.29,8.823c-0.291,2.634,0.063,5.269-0.266,7.861
			c-0.342,2.704-0.06,5.408-0.312,8.089c-0.237,2.523-0.219,5.064-0.536,7.571c-0.35,2.767-0.505,5.552-0.997,8.313
			c-0.488,2.735-0.844,5.496-1.438,8.217c-0.567,2.595-1.19,5.172-1.946,7.721c-1.482,5.001-3.475,9.791-5.91,14.392
			c-1.927,3.64-4.136,7.1-6.767,10.294c-3.76,4.566-8.17,8.38-13.191,11.461c-4.28,2.627-8.914,4.491-13.79,5.71
			c-3.087,0.772-6.225,1.271-9.378,1.729c-3.375,0.491-6.741,0.858-10.149,0.815c-1.032-0.014-2.016,0.351-3.068,0.285
			c-3.603-0.225-7.232-0.186-10.813-0.594c-7.15-0.815-14.223-2.155-20.833-5.119c-4.335-1.944-8.458-4.309-12.173-7.356
			c-2.037-1.671-4.021-3.385-5.8-5.312c-2.255-2.442-4.219-5.112-5.949-7.967c-1.684-2.778-3.114-5.661-4.353-8.663
			c-1.526-3.698-2.653-7.509-3.459-11.41c-0.61-2.949-0.991-5.943-1.444-8.924c-1.096-7.207-0.78-14.448-0.737-21.678
			c0.021-3.545,0.369-7.104,0.817-10.624c0.472-3.699,0.791-7.42,1.362-11.104c0.557-3.594,1.302-7.159,1.872-10.752
			c0.54-3.4,1.383-6.736,2.023-10.114c0.167-0.881,0.414-1.747,0.621-2.621c0.173-0.726,0.737-0.793,1.296-0.671
			c2.331,0.511,4.694,0.053,7.025,0.274c3.182,0.303,6.386,0.012,9.543,0.319c2.596,0.252,5.189-0.058,7.748,0.252
			c2.983,0.362,5.971,0.085,8.936,0.328c1.466,0.12,2.925,0.214,4.39,0.209c0.612-0.002,0.807,0.265,0.706,0.791
			c-0.53,2.782,0.034,5.632-0.52,8.412c-0.023,0.116-0.017,0.24-0.01,0.359c0.196,3.271-0.237,6.522-0.319,9.786
			c-0.102,4.081-0.21,8.181-0.56,12.24c-0.665,7.717-0.697,15.441-0.449,23.149c0.196,6.094,0.875,12.204,3.001,18.022
			c1.759,4.814,4.598,8.618,9.729,10.207c2,0.619,4.088,1.054,6.156,0.985c5.888-0.193,10.601-2.53,13.533-7.911
			c1.992-3.656,3.139-7.577,3.935-11.626c0.714-3.63,1.177-7.285,1.436-10.985c0.284-4.043,0.377-8.086,0.55-12.13
			c0.125-2.905,0.003-5.825,0.278-8.706c0.198-2.073,0.024-4.136,0.219-6.187c0.302-3.179,0.021-6.385,0.341-9.536
			c0.264-2.591-0.051-5.18,0.284-7.728c0.34-2.591-0.034-5.188,0.277-7.743c0.322-2.631-0.042-5.269,0.269-7.866
			c0.305-2.553-0.042-5.109,0.257-7.629c0.317-2.67-0.047-5.351,0.277-7.983c0.31-2.515-0.068-5.034,0.27-7.504
			c0.408-2.984-0.019-5.978,0.321-8.927c0.38-3.311,0.051-6.61,0.241-9.906c0.31-5.379,0.038-10.773,0.328-16.141
			c0.228-4.231-0.099-8.463,0.236-12.67c0.358-4.509-0.091-9.027,0.277-13.51c0.341-4.151-0.106-8.303,0.267-12.422
			c0.408-4.502-0.046-9.011,0.33-13.484c0.271-3.233,0.042-6.449,0.229-9.666c0.318-5.458,0.037-10.933,0.332-16.38
			c0.231-4.27-0.106-8.54,0.237-12.785c0.361-4.469-0.089-8.944,0.273-13.388c0.348-4.271-0.11-8.545,0.268-12.785
			c0.386-4.344-0.127-8.698,0.309-13.002c0.348-3.428,0.008-6.839,0.303-10.247c1.138,3.08,2.297,6.151,3.408,9.24
			c1.769,4.918,3.49,9.853,5.26,14.771c1.798,4.995,3.544,10.008,5.353,15c1.308,3.61,2.567,7.244,3.832,10.873
			c0.886,2.544,1.67,5.13,2.674,7.627c0.901,2.241,1.696,4.52,2.471,6.8c0.906,2.664,1.822,5.333,2.801,7.963
			c0.879,2.365,1.576,4.8,2.594,7.116c0.382,0.87,0.606,1.807,0.926,2.706c0.782,2.201,1.616,4.384,2.358,6.599
			c0.96,2.861,1.973,5.708,2.993,8.543c0.924,2.567,1.692,5.196,2.774,7.706c0.992,2.3,1.583,4.747,2.535,7.05
			c0.895,2.166,1.571,4.408,2.378,6.598c0.778,2.11,1.582,4.229,2.27,6.381C291.675,387.533,292.702,390.24,293.666,392.966z"/>
		<path fill-rule="evenodd" clip-rule="evenodd" fill="#F97600" d="M293.666,392.966c-0.964-2.727-1.991-5.433-2.872-8.187
			c-0.688-2.152-1.492-4.271-2.27-6.381c-0.807-2.189-1.483-4.432-2.378-6.598c-0.952-2.303-1.543-4.75-2.535-7.05
			c-1.082-2.51-1.851-5.139-2.774-7.706c-1.021-2.835-2.033-5.682-2.993-8.543c-0.743-2.214-1.576-4.398-2.358-6.599
			c-0.319-0.898-0.543-1.836-0.926-2.706c-1.018-2.316-1.714-4.751-2.594-7.116c-0.979-2.63-1.895-5.299-2.801-7.963
			c-0.775-2.28-1.569-4.559-2.471-6.8c-1.004-2.497-1.788-5.083-2.674-7.627c-1.265-3.629-2.524-7.262-3.832-10.873
			c-1.808-4.992-3.555-10.005-5.353-15c-1.77-4.918-3.491-9.853-5.26-14.771c-1.111-3.089-2.27-6.16-3.408-9.24
			c-0.221-0.847,0-1.194,0.978-1.192c19.032,0.026,38.064,0.027,57.097-0.003c0.962-0.001,1.348,0.426,1.623,1.215
			c2.778,7.952,5.561,15.903,8.355,23.85c1.932,5.493,3.883,10.98,5.83,16.468c2.495,7.029,4.96,14.068,7.504,21.078
			c1.486,4.096,2.953,8.198,4.387,12.313c1.677,4.81,3.457,9.583,5.192,14.373c0.012,0.159-0.012,0.331,0.04,0.475
			c0.98,2.721,2.039,5.416,2.933,8.165c0.662,2.039,1.412,4.053,2.181,6.041c0.858,2.217,1.623,4.474,2.415,6.706
			c1.008,2.84,2.054,5.674,2.998,8.542c1.361,4.135,2.938,8.198,4.415,12.296c0.215,0.597,0.313,1.245,0.58,1.814
			c1.1,2.341,1.727,4.853,2.609,7.27c1.047,2.869,2.038,5.77,3.044,8.655c0.857,2.461,1.679,4.95,2.68,7.37
			c0.816,1.973,1.41,4.037,2.12,6.055c0.92,2.619,1.872,5.227,2.783,7.85c0.99,2.85,1.917,5.733,3.001,8.536
			c1.329,3.437,2.543,6.917,3.794,10.376c1.213,3.352,2.315,6.751,3.599,10.078c0.599,1.552,0.694,3.286,1.704,4.684
			c0.045,0.161,0.09,0.321,0.135,0.481c0.521,1.96,1.302,3.827,1.992,5.729c1.246,3.427,2.412,6.884,3.624,10.323
			c1.252,3.554,2.608,7.073,3.744,10.664c0.608,1.924,1.799,3.653,1.919,5.735c-2.982,0.232-5.928-0.215-8.887-0.461
			c-1.539-0.128-3.095-0.177-4.631-0.223c-2.346-0.069-4.694-0.22-7.021-0.396c-3.306-0.249-6.629-0.297-9.924-0.772
			c-1.56-0.225-3.17-0.178-4.748-0.237c-2.344-0.088-4.696-0.228-7.021-0.404c-3.309-0.251-6.629-0.403-9.938-0.669
			c-2.319-0.188-4.657-0.601-7.004-0.384c-0.927,0.086-1.357-0.313-1.648-1.153c-2.12-6.13-4.234-12.263-6.43-18.366
			c-1.958-5.441-3.881-10.896-5.817-16.344c-1.839-5.176-3.684-10.35-5.542-15.518c-2.339-6.504-4.606-13.034-6.974-19.526
			c-2.439-6.688-4.739-13.426-7.208-20.103C295.637,398.461,294.659,395.71,293.666,392.966z"/>
		<path fill-rule="evenodd" clip-rule="evenodd" fill="#CC6500" d="M378.029,462.822c-1.01-1.397-1.105-3.132-1.704-4.684
			c-1.283-3.327-2.386-6.727-3.599-10.078c-1.251-3.459-2.465-6.939-3.794-10.376c-1.084-2.803-2.011-5.687-3.001-8.536
			c-0.911-2.623-1.863-5.231-2.783-7.85c-0.71-2.018-1.304-4.082-2.12-6.055c-1.001-2.42-1.822-4.909-2.68-7.37
			c-1.006-2.885-1.997-5.787-3.044-8.655c-0.883-2.417-1.51-4.929-2.609-7.27c-0.268-0.57-0.365-1.217-0.58-1.814
			c-1.477-4.098-3.054-8.161-4.415-12.296c-0.944-2.868-1.99-5.701-2.998-8.542c-0.792-2.232-1.557-4.489-2.415-6.706
			c-0.769-1.988-1.519-4.002-2.181-6.041c-0.894-2.749-1.952-5.443-2.933-8.165c-0.052-0.145-0.028-0.316-0.04-0.475
			c0.271-1.431,0.249-2.911,0.311-4.336c0.118-2.696,0.319-5.396,0.422-8.095c0.13-3.442,0.345-6.885,0.519-10.329
			c0.16-3.161,0.352-6.323,0.547-9.481c0.206-3.316,0.405-6.631,0.591-9.948c0.184-3.285,0.38-6.567,0.529-9.854
			c0.15-3.284,0.348-6.569,0.549-9.851c0.204-3.314,0.418-6.627,0.594-9.945c0.173-3.282,0.363-6.563,0.533-9.845
			c0.163-3.162,0.339-6.325,0.528-9.486c0.207-3.435,0.424-6.869,0.607-10.306c0.168-3.163,0.315-6.332,0.555-9.486
			c0.195-2.564,0.059-5.145,0.451-7.698c0.083-0.54,0.274-0.645,0.745-0.646c3.214-0.007,6.417,0.16,9.609,0.524
			c0.158,0.019,0.32,0.026,0.479,0.014c2.711-0.198,5.403,0.217,8.099,0.351c3.396,0.168,6.793,0.392,10.192,0.563
			c3.205,0.161,6.412,0.326,9.61,0.549c2.525,0.175,5.067,0.141,7.584,0.477c0.486,0.065,0.703,0.161,0.699,0.694
			c-0.022,3.252-0.165,6.497-0.54,9.729c-0.01,0.079-0.01,0.16-0.004,0.24c0.215,2.67-0.225,5.318-0.338,7.975
			c-0.154,3.637-0.402,7.271-0.576,10.911c-0.142,2.964-0.383,5.924-0.517,8.893c-0.161,3.601-0.355,7.203-0.576,10.799
			c-0.194,3.156-0.427,6.308-0.569,9.47c-0.158,3.523-0.371,7.045-0.539,10.569c-0.151,3.201-0.348,6.405-0.55,9.604
			c-0.219,3.474-0.397,6.948-0.592,10.423c-0.172,3.084-0.37,6.166-0.52,9.252c-0.168,3.482-0.341,6.967-0.563,10.443
			c-0.207,3.235-0.371,6.472-0.573,9.707c-0.216,3.445-0.38,6.889-0.542,10.336c-0.151,3.203-0.374,6.404-0.536,9.609
			c-0.177,3.476-0.422,6.95-0.604,10.428c-0.162,3.085-0.371,6.168-0.521,9.256c-0.169,3.482-0.375,6.964-0.549,10.447
			c-0.161,3.234-0.424,6.466-0.594,9.704c-0.18,3.443-0.372,6.885-0.539,10.329c-0.157,3.244-0.371,6.487-0.531,9.733
			c-0.169,3.436-0.419,6.869-0.599,10.307c-0.168,3.204-0.383,6.405-0.538,9.612c-0.163,3.364-0.405,6.726-0.557,10.093
			C378.274,460.687,378.208,461.771,378.029,462.822z"/>
		<path fill-rule="evenodd" clip-rule="evenodd" fill="#CC6500" d="M389.443,495.754c-0.12-2.082-1.311-3.812-1.919-5.735
			c-1.136-3.591-2.492-7.11-3.744-10.664c-1.212-3.439-2.378-6.896-3.624-10.323c-0.69-1.901-1.472-3.769-1.992-5.729
			c3.563,0.182,7.132,0.288,10.688,0.566c2.837,0.223,5.67,0.444,8.512,0.607c2.885,0.166,5.767,0.376,8.653,0.539
			c2.885,0.164,5.771,0.341,8.654,0.534c2.845,0.19,5.688,0.394,8.533,0.575c2.883,0.185,5.775,0.327,8.645,0.599
			c1.966,0.187,3.961-0.063,5.909,0.434c0.507,0.13,0.713,0.271,0.639,0.744c-0.367,2.351-0.037,4.75-0.508,7.092
			c-0.023,0.116-0.028,0.239-0.021,0.357c0.202,2.709-0.223,5.398-0.342,8.094c-0.158,3.594-0.381,7.188-0.604,10.779
			c-0.093,1.493-0.047,3.005-0.233,4.496c-0.403-0.036-0.783-0.119-1.154-0.094c-2.353,0.162-4.681-0.244-7.021-0.329
			c-2.921-0.106-5.846-0.336-8.764-0.546c-2.96-0.213-5.919-0.403-8.882-0.58c-2.764-0.165-5.524-0.381-8.291-0.532
			c-2.963-0.162-5.931-0.332-8.882-0.583C392.281,495.936,390.851,495.972,389.443,495.754z"/>
	</g>
</g>
</svg>
